<svg width="114" height="40" viewBox="0 0 114 40" fill="none" xmlns="http://www.w3.org/2000/svg">
<path d="M57.7041 31.6641C57.8636 31.6022 58.0492 31.5713 58.2607 31.5713C58.4854 31.5713 58.6742 31.6038 58.8271 31.6689C58.9801 31.734 59.1055 31.8252 59.2031 31.9424C59.3008 32.0596 59.3724 32.1979 59.418 32.3574C59.4668 32.5169 59.4977 32.6911 59.5107 32.8799H56.8887C56.9212 32.6781 56.9701 32.4958 57.0352 32.333C57.1035 32.1702 57.193 32.0335 57.3037 31.9229C57.4144 31.8089 57.5479 31.7227 57.7041 31.6641Z" fill="white"/>
<path d="M78.5244 31.6641C78.6839 31.6022 78.8695 31.5713 79.0811 31.5713C79.3057 31.5713 79.4945 31.6038 79.6475 31.6689C79.8005 31.734 79.9258 31.8252 80.0234 31.9424C80.1211 32.0596 80.1927 32.1979 80.2383 32.3574C80.2871 32.5169 80.318 32.6911 80.3311 32.8799H77.709C77.7415 32.6781 77.7904 32.4958 77.8555 32.333C77.9238 32.1702 78.0133 32.0335 78.124 31.9229C78.2347 31.8089 78.3682 31.7227 78.5244 31.6641Z" fill="white"/>
<path d="M84.5254 31.7617C84.7435 31.6673 84.9697 31.6201 85.2041 31.6201C85.4189 31.6201 85.6208 31.6608 85.8096 31.7422C85.9984 31.8203 86.1628 31.9359 86.3027 32.0889C86.446 32.2419 86.5583 32.429 86.6396 32.6504C86.7243 32.8717 86.7666 33.1257 86.7666 33.4121C86.7666 33.7246 86.7227 33.9997 86.6348 34.2373C86.5469 34.4749 86.4297 34.6751 86.2832 34.8379C86.1367 34.9974 85.9674 35.1178 85.7754 35.1992C85.5833 35.2806 85.3831 35.3213 85.1748 35.3213C84.8753 35.3213 84.6247 35.2773 84.4229 35.1895C84.2243 35.1016 84.0713 35.0023 83.9639 34.8916V32.1523C84.1234 31.9863 84.3105 31.8561 84.5254 31.7617Z" fill="white"/>
<path d="M103.124 31.6641C103.284 31.6022 103.469 31.5713 103.681 31.5713C103.905 31.5713 104.094 31.6038 104.247 31.6689C104.4 31.734 104.525 31.8252 104.623 31.9424C104.721 32.0596 104.792 32.1979 104.838 32.3574C104.887 32.5169 104.918 32.6911 104.931 32.8799H102.309C102.341 32.6781 102.39 32.4958 102.455 32.333C102.523 32.1702 102.613 32.0335 102.724 31.9229C102.834 31.8089 102.968 31.7227 103.124 31.6641Z" fill="white"/>
<path fill-rule="evenodd" clip-rule="evenodd" d="M53 26H114V40H53V26ZM56.8691 33.9834C56.8496 33.863 56.8398 33.7311 56.8398 33.5879H60.4824C60.4824 33.4674 60.4792 33.3438 60.4727 33.2168C60.4694 33.0898 60.4596 32.9645 60.4434 32.8408C60.4108 32.5869 60.3522 32.3379 60.2676 32.0938C60.1862 31.8496 60.0641 31.6331 59.9014 31.4443C59.7419 31.2523 59.5335 31.0993 59.2764 30.9854C59.0225 30.8682 58.7051 30.8096 58.3242 30.8096C57.9303 30.8096 57.5853 30.8796 57.2891 31.0195C56.9928 31.1595 56.7438 31.3499 56.542 31.5908C56.3434 31.8285 56.1937 32.1084 56.0928 32.4307C55.9919 32.7497 55.9414 33.0898 55.9414 33.4512C55.9414 33.8971 56 34.2878 56.1172 34.623C56.2376 34.9583 56.402 35.2383 56.6104 35.4629C56.8219 35.6875 57.0726 35.8568 57.3623 35.9707C57.6553 36.0846 57.9727 36.1416 58.3145 36.1416C58.6758 36.1416 59.0241 36.0863 59.3594 35.9756C59.6947 35.8649 60.0283 35.6956 60.3604 35.4678L59.9941 34.8477C59.7207 35.0039 59.4587 35.1195 59.208 35.1943C58.9606 35.266 58.7051 35.3018 58.4414 35.3018C58.1061 35.3018 57.805 35.2204 57.5381 35.0576C57.2744 34.8916 57.0824 34.6458 56.9619 34.3203C56.9229 34.2129 56.8919 34.1006 56.8691 33.9834ZM65.7656 35.1602H65.0527V36H67.416V35.1602H66.7129V32.7383C66.7129 32.4128 66.6706 32.1312 66.5859 31.8936C66.5046 31.6527 66.3874 31.4557 66.2344 31.3027C66.0814 31.1497 65.8958 31.0358 65.6777 30.9609C65.4596 30.8861 65.2155 30.8486 64.9453 30.8486C64.7858 30.8486 64.6328 30.8665 64.4863 30.9023C64.3431 30.9382 64.2048 30.987 64.0713 31.0488C63.9378 31.1107 63.8092 31.1839 63.6855 31.2686C63.5651 31.3532 63.4512 31.4427 63.3438 31.5371H63.334V30.9414H61.7227V31.7812H62.4258V35.1602H61.7227V36H64.0859V35.1602H63.373V32.1963C63.5651 32.0465 63.7686 31.9212 63.9834 31.8203C64.1982 31.7194 64.4115 31.6689 64.623 31.6689C64.9909 31.6689 65.2725 31.7699 65.4678 31.9717C65.6663 32.1702 65.7656 32.4632 65.7656 32.8506V35.1602ZM71.0439 30.9414H69.8574V29.3105L68.9688 29.7305V30.9414H68.1533V31.6787H68.959L68.9443 34.4619C68.9443 34.7809 68.972 35.0479 69.0273 35.2627C69.0827 35.4743 69.1657 35.6436 69.2764 35.7705C69.3903 35.8975 69.5286 35.987 69.6914 36.0391C69.8574 36.0944 70.0511 36.1221 70.2725 36.1221C70.5068 36.1221 70.7103 36.0977 70.8828 36.0488C71.0553 36.0033 71.2197 35.9398 71.376 35.8584L71.166 35.248C71.0423 35.3066 70.9284 35.349 70.8242 35.375C70.7201 35.3978 70.5996 35.4092 70.4629 35.4092C70.3359 35.4092 70.222 35.3864 70.1211 35.3408C70.0202 35.292 69.9469 35.2057 69.9014 35.082C69.8558 34.9583 69.833 34.7972 69.833 34.5986L69.8477 31.6787H71.0439V30.9414ZM74.8232 32.0107H75.751V30.9121C75.6012 30.9056 75.4515 30.9023 75.3018 30.9023H74.8232C74.6963 30.9023 74.5775 30.9219 74.4668 30.9609C74.3594 30.9967 74.2601 31.0488 74.1689 31.1172C74.0811 31.1823 73.9997 31.2604 73.9248 31.3516C73.8532 31.4395 73.7881 31.5355 73.7295 31.6396V30.9414H72.1133V31.7812H72.8164L72.8115 35.1602H72.1133V36H74.623V35.1602H73.7637V32.7188C73.7962 32.543 73.8483 32.3916 73.9199 32.2646C73.9948 32.1344 74.0811 32.0286 74.1787 31.9473C74.2764 31.8626 74.3805 31.8008 74.4912 31.7617C74.6051 31.7194 74.7158 31.6982 74.8232 31.6982V32.0107ZM77.6895 33.9834C77.6699 33.863 77.6602 33.7311 77.6602 33.5879H81.3027C81.3027 33.4674 81.2995 33.3438 81.293 33.2168C81.2897 33.0898 81.2799 32.9645 81.2637 32.8408C81.2311 32.5869 81.1725 32.3379 81.0879 32.0938C81.0065 31.8496 80.8844 31.6331 80.7217 31.4443C80.5622 31.2523 80.3538 31.0993 80.0967 30.9854C79.8428 30.8682 79.5254 30.8096 79.1445 30.8096C78.7507 30.8096 78.4056 30.8796 78.1094 31.0195C77.8132 31.1595 77.5641 31.3499 77.3623 31.5908C77.1637 31.8285 77.014 32.1084 76.9131 32.4307C76.8122 32.7497 76.7617 33.0898 76.7617 33.4512C76.7617 33.8971 76.8203 34.2878 76.9375 34.623C77.0579 34.9583 77.2223 35.2383 77.4307 35.4629C77.6423 35.6875 77.8929 35.8568 78.1826 35.9707C78.4756 36.0846 78.793 36.1416 79.1348 36.1416C79.4961 36.1416 79.8444 36.0863 80.1797 35.9756C80.515 35.8649 80.8486 35.6956 81.1807 35.4678L80.8145 34.8477C80.541 35.0039 80.279 35.1195 80.0283 35.1943C79.7809 35.266 79.5254 35.3018 79.2617 35.3018C78.9264 35.3018 78.6253 35.2204 78.3584 35.0576C78.0947 34.8916 77.9027 34.6458 77.7822 34.3203C77.7432 34.2129 77.7122 34.1006 77.6895 33.9834ZM83.9541 30.9414H82.3428V31.7812H83.0459V37.46H82.3525V38.2998H84.7549V37.46H83.9639V35.8242C84.1462 35.9089 84.3366 35.9772 84.5352 36.0293C84.737 36.0846 84.9665 36.1123 85.2236 36.1123C85.585 36.1123 85.917 36.0456 86.2197 35.9121C86.5225 35.7786 86.7829 35.5931 87.001 35.3555C87.2223 35.1146 87.3949 34.8265 87.5186 34.4912C87.6423 34.1559 87.7041 33.7848 87.7041 33.3779C87.7041 32.9971 87.6488 32.6504 87.5381 32.3379C87.4274 32.0221 87.2712 31.752 87.0693 31.5273C86.8708 31.3027 86.6331 31.1286 86.3564 31.0049C86.0798 30.8812 85.7754 30.8193 85.4434 30.8193C85.1732 30.8193 84.9111 30.8682 84.6572 30.9658C84.4033 31.0635 84.1689 31.1953 83.9541 31.3613V30.9414ZM91.3564 32.0107H92.2842V30.9121C92.1344 30.9056 91.9847 30.9023 91.835 30.9023H91.3564C91.2295 30.9023 91.1107 30.9219 91 30.9609C90.8926 30.9967 90.7933 31.0488 90.7021 31.1172C90.6143 31.1823 90.5329 31.2604 90.458 31.3516C90.3864 31.4395 90.3213 31.5355 90.2627 31.6396V30.9414H88.6465V31.7812H89.3496L89.3447 35.1602H88.6465V36H91.1562V35.1602H90.2969V32.7188C90.3294 32.543 90.3815 32.3916 90.4531 32.2646C90.528 32.1344 90.6143 32.0286 90.7119 31.9473C90.8096 31.8626 90.9137 31.8008 91.0244 31.7617C91.1383 31.7194 91.249 31.6982 91.3564 31.6982V32.0107ZM94.9453 30.9414H93.2949V31.7812H94.0273V35.1602H93.3047V36H95.707V35.1602H94.9453V30.9414ZM93.9053 28.9102C93.8727 28.985 93.8564 29.0648 93.8564 29.1494C93.8564 29.2373 93.8727 29.3203 93.9053 29.3984C93.9411 29.4766 93.9867 29.5465 94.042 29.6084C94.1006 29.667 94.1689 29.7142 94.2471 29.75C94.3252 29.7826 94.4082 29.7988 94.4961 29.7988C94.5807 29.7988 94.6605 29.7826 94.7354 29.75C94.8135 29.7142 94.8802 29.667 94.9355 29.6084C94.9941 29.5465 95.0397 29.4766 95.0723 29.3984C95.1081 29.3203 95.126 29.2373 95.126 29.1494C95.126 29.0648 95.1081 28.985 95.0723 28.9102C95.0397 28.832 94.9941 28.7653 94.9355 28.71C94.8802 28.6514 94.8135 28.6058 94.7354 28.5732C94.6605 28.5374 94.5807 28.5195 94.4961 28.5195C94.4082 28.5195 94.3252 28.5374 94.2471 28.5732C94.1689 28.6058 94.1006 28.6514 94.042 28.71C93.9867 28.7653 93.9411 28.832 93.9053 28.9102ZM99.3691 31.9521C99.4342 32.0465 99.4668 32.1621 99.4668 32.2988H100.468V31.459H99.9941C99.7988 31.2148 99.5791 31.0423 99.335 30.9414C99.0908 30.8405 98.7881 30.79 98.4268 30.79C98.1468 30.79 97.8978 30.8275 97.6797 30.9023C97.4616 30.9772 97.276 31.0814 97.123 31.2148C96.9733 31.3451 96.8577 31.5013 96.7764 31.6836C96.6982 31.8659 96.6592 32.0645 96.6592 32.2793C96.6592 32.6048 96.7536 32.8766 96.9424 33.0947C97.1344 33.3096 97.4274 33.487 97.8213 33.627L98.7881 33.9883C99.042 34.0794 99.221 34.182 99.3252 34.2959C99.4326 34.4098 99.4863 34.5482 99.4863 34.7109C99.4863 34.8184 99.4603 34.9144 99.4082 34.999C99.3561 35.0837 99.2845 35.1569 99.1934 35.2188C99.1055 35.2773 99.0029 35.3229 98.8857 35.3555C98.7686 35.3848 98.6465 35.3994 98.5195 35.3994C98.3893 35.3994 98.2607 35.3848 98.1338 35.3555C98.0101 35.3262 97.8978 35.2806 97.7969 35.2188C97.6992 35.1569 97.6195 35.0771 97.5576 34.9795C97.499 34.8786 97.4697 34.7581 97.4697 34.6182H96.459V35.458H96.9668C97.1003 35.6663 97.2907 35.834 97.5381 35.9609C97.7855 36.0879 98.1061 36.1514 98.5 36.1514C98.7832 36.1514 99.0404 36.1139 99.2715 36.0391C99.5026 35.9674 99.6995 35.8665 99.8623 35.7363C100.028 35.6029 100.155 35.4434 100.243 35.2578C100.334 35.069 100.38 34.8623 100.38 34.6377C100.38 34.3024 100.284 34.0143 100.092 33.7734C99.8997 33.5326 99.5954 33.3421 99.1787 33.2021L98.207 32.8604C97.9661 32.7757 97.7936 32.6846 97.6895 32.5869C97.5885 32.486 97.5381 32.3509 97.5381 32.1816C97.5381 32.084 97.5592 31.9961 97.6016 31.918C97.6471 31.8366 97.709 31.7682 97.7871 31.7129C97.8652 31.6576 97.958 31.6152 98.0654 31.5859C98.1761 31.5566 98.2965 31.542 98.4268 31.542C98.5439 31.542 98.6644 31.5566 98.7881 31.5859C98.9118 31.612 99.0241 31.6559 99.125 31.7178C99.2259 31.7764 99.3073 31.8545 99.3691 31.9521ZM102.289 33.9834C102.27 33.863 102.26 33.7311 102.26 33.5879H105.902C105.902 33.4674 105.899 33.3438 105.893 33.2168C105.889 33.0898 105.88 32.9645 105.863 32.8408C105.831 32.5869 105.772 32.3379 105.688 32.0938C105.606 31.8496 105.484 31.6331 105.321 31.4443C105.162 31.2523 104.953 31.0993 104.696 30.9854C104.442 30.8682 104.125 30.8096 103.744 30.8096C103.35 30.8096 103.005 30.8796 102.709 31.0195C102.413 31.1595 102.164 31.3499 101.962 31.5908C101.763 31.8285 101.614 32.1084 101.513 32.4307C101.412 32.7497 101.361 33.0898 101.361 33.4512C101.361 33.8971 101.42 34.2878 101.537 34.623C101.658 34.9583 101.822 35.2383 102.03 35.4629C102.242 35.6875 102.493 35.8568 102.782 35.9707C103.075 36.0846 103.393 36.1416 103.734 36.1416C104.096 36.1416 104.444 36.0863 104.779 35.9756C105.115 35.8649 105.448 35.6956 105.78 35.4678L105.414 34.8477C105.141 35.0039 104.879 35.1195 104.628 35.1943C104.381 35.266 104.125 35.3018 103.861 35.3018C103.526 35.3018 103.225 35.2204 102.958 35.0576C102.694 34.8916 102.502 34.6458 102.382 34.3203C102.343 34.2129 102.312 34.1006 102.289 33.9834ZM109.965 31.9521C110.03 32.0465 110.062 32.1621 110.062 32.2988H111.063V31.459H110.59C110.395 31.2148 110.175 31.0423 109.931 30.9414C109.687 30.8405 109.384 30.79 109.022 30.79C108.743 30.79 108.493 30.8275 108.275 30.9023C108.057 30.9772 107.872 31.0814 107.719 31.2148C107.569 31.3451 107.453 31.5013 107.372 31.6836C107.294 31.8659 107.255 32.0645 107.255 32.2793C107.255 32.6048 107.349 32.8766 107.538 33.0947C107.73 33.3096 108.023 33.487 108.417 33.627L109.384 33.9883C109.638 34.0794 109.817 34.182 109.921 34.2959C110.028 34.4098 110.082 34.5482 110.082 34.7109C110.082 34.8184 110.056 34.9144 110.004 34.999C109.952 35.0837 109.88 35.1569 109.789 35.2188C109.701 35.2773 109.599 35.3229 109.481 35.3555C109.364 35.3848 109.242 35.3994 109.115 35.3994C108.985 35.3994 108.856 35.3848 108.729 35.3555C108.606 35.3262 108.493 35.2806 108.393 35.2188C108.295 35.1569 108.215 35.0771 108.153 34.9795C108.095 34.8786 108.065 34.7581 108.065 34.6182H107.055V35.458H107.562C107.696 35.6663 107.886 35.834 108.134 35.9609C108.381 36.0879 108.702 36.1514 109.096 36.1514C109.379 36.1514 109.636 36.1139 109.867 36.0391C110.098 35.9674 110.295 35.8665 110.458 35.7363C110.624 35.6029 110.751 35.4434 110.839 35.2578C110.93 35.069 110.976 34.8623 110.976 34.6377C110.976 34.3024 110.88 34.0143 110.688 33.7734C110.495 33.5326 110.191 33.3421 109.774 33.2021L108.803 32.8604C108.562 32.7757 108.389 32.6846 108.285 32.5869C108.184 32.486 108.134 32.3509 108.134 32.1816C108.134 32.084 108.155 31.9961 108.197 31.918C108.243 31.8366 108.305 31.7682 108.383 31.7129C108.461 31.6576 108.554 31.6152 108.661 31.5859C108.772 31.5566 108.892 31.542 109.022 31.542C109.14 31.542 109.26 31.5566 109.384 31.5859C109.507 31.612 109.62 31.6559 109.721 31.7178C109.822 31.7764 109.903 31.8545 109.965 31.9521Z" fill="white"/>
<path d="M1.67578 5.23438H8.85938C9.65625 5.23438 10.3867 5.33984 11.0508 5.55078C11.7227 5.75391 12.3008 6.05859 12.7852 6.46484C13.2773 6.86328 13.6562 7.36328 13.9219 7.96484C14.1953 8.56641 14.332 9.2578 14.332 10.0391C14.332 10.6875 14.1992 11.3008 13.9336 11.8789C13.668 12.4492 13.293 12.9492 12.8086 13.3789C12.3242 13.8086 11.7422 14.1484 11.0625 14.3984C10.3906 14.6484 9.64062 14.7734 8.8125 14.7734H5.66016V20.9844H7.44141V23H1.67578V20.9844H3.36328V7.26172H1.67578V5.23438ZM5.66016 7.26172V12.8516H8.85938C9.30469 12.8516 9.71094 12.793 10.0781 12.6758C10.4531 12.5508 10.7734 12.3711 11.0391 12.1367C11.3125 11.9023 11.5234 11.6094 11.6719 11.2578C11.8281 10.9062 11.9062 10.5 11.9062 10.0391C11.9062 9.16405 11.6406 8.48438 11.1094 8C10.5781 7.50781 9.73047 7.26172 8.56641 7.26172H5.66016ZM22.3242 21.875C21.8633 22.3047 21.3516 22.6562 20.7891 22.9297C20.2344 23.2031 19.6016 23.3398 18.8906 23.3398C18.2969 23.3398 17.75 23.2461 17.25 23.0586C16.7578 22.8711 16.332 22.6172 15.9727 22.2969C15.6133 21.9688 15.332 21.5898 15.1289 21.1602C14.9336 20.7305 14.8359 20.2734 14.8359 19.7891C14.8359 19.2734 14.9102 18.8164 15.0586 18.418C15.2148 18.0195 15.418 17.6758 15.668 17.3867C15.9258 17.0898 16.2227 16.8438 16.5586 16.6484C16.9023 16.4453 17.2578 16.2852 17.625 16.168C18 16.043 18.3789 15.957 18.7617 15.9102C19.1523 15.8555 19.5234 15.8281 19.875 15.8281C20.4375 15.8281 20.9102 15.8477 21.293 15.8867C21.6758 15.918 22.0234 15.9648 22.3359 16.0273L22.3477 15.0312C22.3477 14.6016 22.2852 14.2305 22.1602 13.918C22.0352 13.5977 21.8594 13.3359 21.6328 13.1328C21.4062 12.9219 21.1328 12.7656 20.8125 12.6641C20.5 12.5625 20.1484 12.5117 19.7578 12.5117C19.3906 12.5117 19.0391 12.5391 18.7031 12.5938C18.3672 12.6406 18.0508 12.707 17.7539 12.793C17.4648 12.8711 17.1953 12.9648 16.9453 13.0742C16.7031 13.1758 16.4961 13.2852 16.3242 13.4023L15.6094 11.8906C15.8984 11.7031 16.2148 11.5312 16.5586 11.375C16.9023 11.2109 17.2617 11.0742 17.6367 10.9648C18.0195 10.8477 18.4062 10.7578 18.7969 10.6953C19.1953 10.625 19.5859 10.5898 19.9688 10.5898C20.6719 10.5898 21.3047 10.6758 21.8672 10.8477C22.4297 11.0117 22.9062 11.2695 23.2969 11.6211C23.6875 11.9727 23.9883 12.4219 24.1992 12.9688C24.4102 13.5078 24.5156 14.1562 24.5156 14.9141L24.5039 20.9844H25.8516V23H22.3242V21.875ZM19.3711 21.5117C19.6602 21.5117 19.9492 21.4766 20.2383 21.4062C20.5273 21.3359 20.8008 21.2422 21.0586 21.125C21.3164 21 21.5547 20.8594 21.7734 20.7031C21.9922 20.5391 22.1758 20.3711 22.3242 20.1992L22.3359 17.457H19.8047C19.3828 17.457 18.9961 17.5039 18.6445 17.5977C18.3008 17.6914 18 17.8281 17.7422 18.0078C17.4922 18.1875 17.2969 18.4102 17.1562 18.6758C17.0156 18.9414 16.9453 19.2461 16.9453 19.5898C16.9453 19.9102 17.0039 20.1914 17.1211 20.4336C17.2383 20.668 17.4023 20.8672 17.6133 21.0312C17.832 21.1875 18.0898 21.3086 18.3867 21.3945C18.6836 21.4727 19.0117 21.5117 19.3711 21.5117ZM27.832 10.8594H31.6992V11.8672C32.2148 11.4688 32.7773 11.1523 33.3867 10.918C33.9961 10.6836 34.625 10.5664 35.2734 10.5664C36.0703 10.5664 36.8008 10.7148 37.4648 11.0117C38.1289 11.3086 38.6992 11.7266 39.1758 12.2656C39.6602 12.8047 40.0352 13.4531 40.3008 14.2109C40.5664 14.9609 40.6992 15.793 40.6992 16.707C40.6992 17.6836 40.5508 18.5742 40.2539 19.3789C39.957 20.1836 39.543 20.875 39.0117 21.4531C38.4883 22.0234 37.8633 22.4688 37.1367 22.7891C36.4102 23.1094 35.6133 23.2695 34.7461 23.2695C34.1289 23.2695 33.5781 23.2031 33.0938 23.0703C32.6172 22.9453 32.1602 22.7812 31.7227 22.5781V26.5039H33.6211V28.5195H27.8555V26.5039H29.5195V12.875H27.832V10.8594ZM34.6992 12.4883C34.1367 12.4883 33.5938 12.6016 33.0703 12.8281C32.5547 13.0547 32.1055 13.3672 31.7227 13.7656V20.3398C31.9805 20.6055 32.3477 20.8438 32.8242 21.0547C33.3086 21.2656 33.9102 21.3711 34.6289 21.3711C35.1289 21.3711 35.6094 21.2734 36.0703 21.0781C36.5312 20.8828 36.9375 20.5938 37.2891 20.2109C37.6406 19.8203 37.9219 19.3398 38.1328 18.7695C38.3438 18.1992 38.4492 17.5391 38.4492 16.7891C38.4492 16.1016 38.3477 15.4922 38.1445 14.9609C37.9492 14.4297 37.6797 13.9805 37.3359 13.6133C37 13.2461 36.6055 12.9688 36.1523 12.7812C35.6992 12.5859 35.2148 12.4883 34.6992 12.4883ZM42.4805 10.8594H46.3477V11.8672C46.8633 11.4688 47.4258 11.1523 48.0352 10.918C48.6445 10.6836 49.2734 10.5664 49.9219 10.5664C50.7188 10.5664 51.4492 10.7148 52.1133 11.0117C52.7773 11.3086 53.3477 11.7266 53.8242 12.2656C54.3086 12.8047 54.6836 13.4531 54.9492 14.2109C55.2148 14.9609 55.3477 15.793 55.3477 16.707C55.3477 17.6836 55.1992 18.5742 54.9023 19.3789C54.6055 20.1836 54.1914 20.875 53.6602 21.4531C53.1367 22.0234 52.5117 22.4688 51.7852 22.7891C51.0586 23.1094 50.2617 23.2695 49.3945 23.2695C48.7773 23.2695 48.2266 23.2031 47.7422 23.0703C47.2656 22.9453 46.8086 22.7812 46.3711 22.5781V26.5039H48.2695V28.5195H42.5039V26.5039H44.168V12.875H42.4805V10.8594ZM49.3477 12.4883C48.7852 12.4883 48.2422 12.6016 47.7188 12.8281C47.2031 13.0547 46.7539 13.3672 46.3711 13.7656V20.3398C46.6289 20.6055 46.9961 20.8438 47.4727 21.0547C47.957 21.2656 48.5586 21.3711 49.2773 21.3711C49.7773 21.3711 50.2578 21.2734 50.7188 21.0781C51.1797 20.8828 51.5859 20.5938 51.9375 20.2109C52.2891 19.8203 52.5703 19.3398 52.7812 18.7695C52.9922 18.1992 53.0977 17.5391 53.0977 16.7891C53.0977 16.1016 52.9961 15.4922 52.793 14.9609C52.5977 14.4297 52.3281 13.9805 51.9844 13.6133C51.6484 13.2461 51.2539 12.9688 50.8008 12.7812C50.3477 12.5859 49.8633 12.4883 49.3477 12.4883ZM59.6719 17.2109C59.6719 17.5547 59.6953 17.8711 59.7422 18.1602C59.7969 18.4414 59.8711 18.7109 59.9648 18.9688C60.2539 19.75 60.7148 20.3398 61.3477 20.7383C61.9883 21.1289 62.7109 21.3242 63.5156 21.3242C64.1484 21.3242 64.7617 21.2383 65.3555 21.0664C65.957 20.8867 66.5859 20.6094 67.2422 20.2344L68.1211 21.7227C67.3242 22.2695 66.5234 22.6758 65.7188 22.9414C64.9141 23.207 64.0781 23.3398 63.2109 23.3398C62.3906 23.3398 61.6289 23.2031 60.9258 22.9297C60.2305 22.6562 59.6289 22.25 59.1211 21.7109C58.6211 21.1719 58.2266 20.5 57.9375 19.6953C57.6562 18.8906 57.5156 17.9531 57.5156 16.8828C57.5156 16.0156 57.6367 15.1992 57.8789 14.4336C58.1211 13.6602 58.4805 12.9883 58.957 12.418C59.4414 11.8398 60.0391 11.3828 60.75 11.0469C61.4609 10.7109 62.2891 10.543 63.2344 10.543C64.1484 10.543 64.9102 10.6836 65.5195 10.9648C66.1367 11.2383 66.6367 11.6055 67.0195 12.0664C67.4102 12.5195 67.7031 13.0391 67.8984 13.625C68.1016 14.2109 68.2422 14.8086 68.3203 15.418C68.3594 15.7148 68.3828 16.0156 68.3906 16.3203C68.4062 16.625 68.4141 16.9219 68.4141 17.2109H59.6719ZM63.082 12.3711C62.5742 12.3711 62.1289 12.4453 61.7461 12.5938C61.3711 12.7344 61.0508 12.9414 60.7852 13.2148C60.5195 13.4805 60.3047 13.8086 60.1406 14.1992C59.9844 14.5898 59.8672 15.0273 59.7891 15.5117H66.082C66.0508 15.0586 65.9766 14.6406 65.8594 14.2578C65.75 13.875 65.5781 13.543 65.3438 13.2617C65.1094 12.9805 64.8086 12.7617 64.4414 12.6055C64.0742 12.4492 63.6211 12.3711 63.082 12.3711ZM80.1211 13.4258H77.8945V12.6758C77.6367 12.6758 77.3711 12.7266 77.0977 12.8281C76.832 12.9219 76.582 13.0703 76.3477 13.2734C76.1133 13.4688 75.9062 13.7227 75.7266 14.0352C75.5547 14.3398 75.4297 14.7031 75.3516 15.125V20.9844H77.4141V23H71.3906V20.9844H73.0664L73.0781 12.875H71.3906V10.8594H75.2695V12.5352C75.4102 12.2852 75.5664 12.0547 75.7383 11.8438C75.918 11.625 76.1133 11.4375 76.3242 11.2812C76.543 11.1172 76.7812 10.9922 77.0391 10.9062C77.3047 10.8125 77.5898 10.7656 77.8945 10.7656C78.3008 10.7656 78.6836 10.7656 79.043 10.7656C79.4023 10.7656 79.7617 10.7734 80.1211 10.7891V13.4258ZM89.6484 14.1172C89.6484 13.7891 89.5703 13.5117 89.4141 13.2852C89.2656 13.0508 89.0703 12.8633 88.8281 12.7227C88.5859 12.5742 88.3164 12.4688 88.0195 12.4062C87.7227 12.3359 87.4336 12.3008 87.1523 12.3008C86.8398 12.3008 86.5508 12.3359 86.2852 12.4062C86.0273 12.4766 85.8047 12.5781 85.6172 12.7109C85.4297 12.8438 85.2812 13.0078 85.1719 13.2031C85.0703 13.3906 85.0195 13.6016 85.0195 13.8359C85.0195 14.2422 85.1406 14.5664 85.3828 14.8086C85.6328 15.043 86.0469 15.2617 86.625 15.4648L88.957 16.2852C89.957 16.6211 90.6875 17.0781 91.1484 17.6562C91.6094 18.2344 91.8398 18.9258 91.8398 19.7305C91.8398 20.2695 91.7305 20.7656 91.5117 21.2188C91.3008 21.6641 90.9961 22.0469 90.5977 22.3672C90.207 22.6797 89.7344 22.9219 89.1797 23.0938C88.625 23.2734 88.0078 23.3633 87.3281 23.3633C86.3828 23.3633 85.6133 23.2109 85.0195 22.9062C84.4258 22.6016 83.9688 22.1992 83.6484 21.6992H82.4297V19.6836H84.8555C84.8555 20.0195 84.9258 20.3086 85.0664 20.5508C85.2148 20.7852 85.4062 20.9766 85.6406 21.125C85.8828 21.2734 86.1523 21.3828 86.4492 21.4531C86.7539 21.5234 87.0625 21.5586 87.375 21.5586C87.6797 21.5586 87.9727 21.5234 88.2539 21.4531C88.5352 21.375 88.7812 21.2656 88.9922 21.125C89.2109 20.9766 89.3828 20.8008 89.5078 20.5977C89.6328 20.3945 89.6953 20.1641 89.6953 19.9062C89.6953 19.5156 89.5664 19.1836 89.3086 18.9102C89.0586 18.6367 88.6289 18.3906 88.0195 18.1719L85.6992 17.3047C84.7539 16.9688 84.0508 16.543 83.5898 16.0273C83.1367 15.5039 82.9102 14.8516 82.9102 14.0703C82.9102 13.5547 83.0039 13.0781 83.1914 12.6406C83.3867 12.2031 83.6641 11.8281 84.0234 11.5156C84.3906 11.1953 84.8359 10.9453 85.3594 10.7656C85.8828 10.5859 86.4805 10.4961 87.1523 10.4961C88.0195 10.4961 88.7461 10.6172 89.332 10.8594C89.918 11.1016 90.4453 11.5156 90.9141 12.1016H92.0508V14.1172H89.6484Z" fill="white"/>
</svg>
